<svg width="960" height="720" viewBox="0 0 960 720" fill="none" xmlns="http://www.w3.org/2000/svg">
  <rect width="960" height="720" rx="44" fill="#070909"/>
  <rect x="28" y="28" width="904" height="664" rx="36" fill="url(#bg)"/>
  <ellipse cx="482" cy="520" rx="292" ry="118" fill="#0E3E2C"/>
  <ellipse cx="482" cy="520" rx="250" ry="92" fill="#115237"/>
  <rect x="238" y="186" width="180" height="240" rx="24" transform="rotate(-10 238 186)" fill="#F5F5F2"/>
  <rect x="278" y="212" width="100" height="140" rx="18" fill="#0B0D0C"/>
  <path d="M332 256C321 236 292 240 292 264C292 282 309 292 332 316C355 292 372 282 372 264C372 240 343 236 332 256Z" fill="#56DF9D"/>
  <rect x="430" y="154" width="206" height="270" rx="26" transform="rotate(6 430 154)" fill="#111513" stroke="rgba(255,255,255,0.16)"/>
  <circle cx="538" cy="300" r="68" fill="#0F5C3F"/>
  <circle cx="538" cy="300" r="52" fill="#1B7A56"/>
  <circle cx="538" cy="300" r="36" fill="#0B0D0C"/>
  <circle cx="538" cy="300" r="20" fill="#FFC15F"/>
  <circle cx="712" cy="246" r="64" fill="#151817"/>
  <circle cx="712" cy="246" r="50" fill="#1D2320" stroke="#E8EFEA" stroke-opacity=".2" stroke-width="8"/>
  <circle cx="712" cy="246" r="8" fill="#E8EFEA" fill-opacity=".8"/>
  <rect x="612" y="424" width="184" height="112" rx="26" fill="#0B0D0C" fill-opacity=".56" stroke="rgba(255,255,255,0.1)"/>
  <path d="M662 508L694 462L726 486L758 442" stroke="#FFC15F" stroke-width="14" stroke-linecap="round" stroke-linejoin="round"/>
  <defs>
    <linearGradient id="bg" x1="120" y1="86" x2="796" y2="662" gradientUnits="userSpaceOnUse">
      <stop stop-color="#0B0D0C"/>
      <stop offset=".52" stop-color="#102319"/>
      <stop offset="1" stop-color="#18211E"/>
    </linearGradient>
  </defs>
</svg>
